<?xml version="1.0" encoding="UTF-8" standalone="no"?>
<!-- Created with Inkscape (http://www.inkscape.org/) -->

<svg
   width="304.34882mm"
   height="95.406311mm"
   viewBox="0 0 304.34882 95.40631"
   version="1.1"
   id="svg1"
   xml:space="preserve"
   xmlns="http://www.w3.org/2000/svg"
   xmlns:svg="http://www.w3.org/2000/svg"><defs
     id="defs1" /><g
     id="layer1"
     transform="translate(22.884107,-30.08372)"
     style="display:inline"><rect
       style="fill:#f9f9f9;stroke-width:0.710748;stroke-linecap:round;stroke-linejoin:round"
       id="rect1-1"
       width="208.35085"
       height="92.599182"
       x="24.20216"
       y="32.890858"
       ry="3.7546248" /><rect
       style="fill:#008080;stroke-width:0.645999;stroke-linecap:round;stroke-linejoin:round"
       id="rect1"
       width="195.82292"
       height="81.389992"
       x="30.466116"
       y="38.495453"
       ry="2.1082597" /><path
       id="rect2"
       style="display:inline;fill:#008080;stroke-width:0.645999;stroke-linecap:round;stroke-linejoin:round"
       d="m -9.5123339,114.57703 h 5.748724 c 2.79554028,0 5.0461016,2.25056 5.0461016,5.0461 0,2.79554 -2.25056132,5.0461 -5.0461016,5.0461 h -5.748724 c -2.7955401,0 -5.0461011,-2.25056 -5.0461011,-5.0461 0,-2.79554 2.250561,-5.0461 5.0461011,-5.0461 z" /><path
       id="rect2-1-0"
       style="display:inline;fill:#b3b3b3;stroke-width:0.692324;stroke-linecap:round;stroke-linejoin:round"
       d="m 273.05235,31.145339 c -3.03065,0 -3.31214,0.638204 -9.39219,0.638204 -3.03048,0 -5.47038,2.440012 -5.47047,5.470467 9e-5,3.030455 2.43999,5.470467 5.47047,5.470467 6.08005,0 6.36154,0.638204 9.39219,0.638204 3.92849,0 7.11312,-2.905466 7.11326,-6.108671 -1.4e-4,-3.203205 -3.18477,-6.108671 -7.11326,-6.108671 z" /><rect
       style="display:inline;fill:#008080;stroke-width:0.645999;stroke-linecap:round;stroke-linejoin:round"
       id="rect2-1"
       width="15.840927"
       height="10.092203"
       x="258.66101"
       y="32.207745"
       ry="5.0461016" /><path
       id="path2"
       style="display:inline;fill:#333333;stroke-width:0.645999;stroke-linecap:round;stroke-linejoin:round"
       d="m 245.03081,90.59494 c -4.72078,8.3e-5 -8.54772,3.827014 -8.5478,8.547799 -4e-5,2.678401 1.25533,5.201961 3.39152,6.817671 6.8889,5.70238 14.01365,12.59288 20.85299,15.77165 1.75913,0.65676 3.6033,0.9699 5.4715,0.9896 6.38301,8e-5 11.55749,-5.16583 11.55744,-11.53831 2e-5,-6.14826 -4.70271,-10.86747 -10.97969,-11.523847 -2.56102,-0.267802 -6.53608,-2.084726 -8.51142,-2.920679 -6.22377,-2.633861 -8.74027,-6.143836 -13.23454,-6.143884 z" /><ellipse
       style="display:inline;fill:#b3b3b3;stroke-width:0.917916;stroke-linecap:round;stroke-linejoin:round"
       id="path3-5"
       cx="244.05994"
       cy="37.253845"
       rx="7.2613339"
       ry="7.1701283" /><ellipse
       style="fill:#333333;stroke-width:0.645999;stroke-linecap:round;stroke-linejoin:round"
       id="path3"
       cx="244.05994"
       cy="37.253845"
       rx="5.1102891"
       ry="5.0461016" /><path
       id="rect3"
       style="display:inline;fill:#333333;stroke-width:0.645999;stroke-linecap:round;stroke-linejoin:round"
       d="m 270.98168,47.163482 c -11.11761,0.06549 -20.04839,9.036764 -20.04839,20.170346 v 7.715291 c 0,11.133559 8.93029,20.104818 20.04787,20.170345 0.0225,2.4e-4 0.0452,5.17e-4 0.0677,5.17e-4 0.0177,4.7e-5 0.0355,-2e-6 0.0532,0 h 0.002 3.47162 c 3.38898,0 6.11746,-2.72848 6.11746,-6.117456 0,0 0.77155,-8.738744 0.77155,-17.911052 0,-9.172307 -0.77155,-17.911051 -0.77155,-17.911051 -0.14585,-3.385837 -2.72848,-6.11694 -6.11746,-6.11694 h -3.47162 -0.004 c -0.0171,4e-6 -0.0341,-4.5e-5 -0.0512,0 -0.0225,0 -0.0447,-2.4e-4 -0.0672,0 z" /><path
       id="rect3-1"
       style="display:inline;opacity:0.88;fill:#0000ff;stroke-width:0.601656;stroke-linecap:round;stroke-linejoin:round"
       d="m 271.17079,48.600597 c -10.45245,0.06042 -18.84883,8.337622 -18.84883,18.609773 0.17094,1.309678 1.38434,2.2345 2.7102,2.065647 h 18.69854 c 1.44906,0 2.70313,-1.155309 2.61549,-2.584054 0,0 -0.084,-3.254944 -0.28072,-5.700479 -0.21474,-2.670017 -0.56379,-4.679757 -1.08439,-8.04033 -0.49277,-3.180874 -1.80176,-4.350557 -3.74715,-4.350557 -0.0211,0 -0.042,-2.21e-4 -0.0631,0 z" /><path
       id="rect3-1-4"
       style="display:inline;opacity:0.88;fill:#0000ff;stroke-width:0.601656;stroke-linecap:round;stroke-linejoin:round"
       d="m 271.17079,93.493788 c -10.45245,-0.06042 -18.84883,-8.337622 -18.84883,-18.609773 0.17094,-1.309678 1.38434,-2.2345 2.7102,-2.065647 h 18.69854 c 1.44906,0 2.70313,1.155309 2.61549,2.584054 0,0 -0.084,3.254944 -0.28072,5.700479 -0.21474,2.670017 -0.56379,4.679757 -1.08439,8.04033 -0.49277,3.180874 -1.80176,4.350557 -3.74715,4.350557 -0.0211,0 -0.042,2.21e-4 -0.0631,0 z" /><path
       id="rect4"
       style="opacity:0.88;fill:#f9f9f9;stroke-width:0.568205;stroke-linecap:round;stroke-linejoin:round"
       d="m 168.61853,215.04877 -8.35683,1.9e-4 a 0.26468923,0.26468923 135.00471 0 0 -0.26468,0.26464 l -1.4e-4,0.74782 a 0.26457641,0.26457641 45.004614 0 0 0.26458,0.26462 l 7.28968,-1.9e-4 a 0.31514559,0.31514559 40.019226 0 1 0.3104,0.26063 l 1.266,7.20926 a 0.26430443,0.26430443 35.004373 0 0 0.30636,0.21454 l 0.73192,-0.12946 a 0.26495163,0.26495163 125.0032 0 0 0.21481,-0.30674 l -1.45169,-8.26468 a 0.31515971,0.31515971 40.018147 0 0 -0.31041,-0.26063 z"
       transform="matrix(0.75881212,-0.65130958,0.63421927,0.77315323,0,0)" /><path
       id="rect4-7"
       style="display:inline;opacity:0.88;fill:#f9f9f9;stroke-width:0.568205;stroke-linecap:round;stroke-linejoin:round"
       d="m 168.61853,215.04877 -8.35683,1.9e-4 a 0.26468923,0.26468923 135.00471 0 0 -0.26468,0.26464 l -1.4e-4,0.74782 a 0.26457641,0.26457641 45.004614 0 0 0.26458,0.26462 l 7.28968,-1.9e-4 a 0.31514559,0.31514559 40.019226 0 1 0.3104,0.26063 l 1.266,7.20926 a 0.26430443,0.26430443 35.004373 0 0 0.30636,0.21454 l 0.73192,-0.12946 a 0.26495163,0.26495163 125.0032 0 0 0.21481,-0.30674 l -1.45169,-8.26468 a 0.31515971,0.31515971 40.018147 0 0 -0.31041,-0.26063 z"
       transform="matrix(0.75881212,0.65130958,0.63421927,-0.77315323,0,142.12676)" /><circle
       style="opacity:0.88;fill:#f9f9f9;stroke-width:0.645999;stroke-linecap:round;stroke-linejoin:round"
       id="path5"
       cx="244.95482"
       cy="99.073517"
       r="7.0174103" /><circle
       style="display:inline;opacity:0.88;fill:#f9f9f9;stroke-width:0.947459;stroke-linecap:round;stroke-linejoin:round"
       id="path5-4"
       cx="266.13611"
       cy="111.17263"
       r="10.292138" /><path
       id="path6"
       style="opacity:0.88;fill:#f9f9f9;stroke-width:0.645999;stroke-linecap:round;stroke-linejoin:round"
       d="m -12.960681,31.201666 c -0.357872,-4.7e-5 -0.714433,0.03564 -1.064575,0.106273 -0.297677,0.06005 -0.774055,0.08515 -1.075158,0.04513 -0.356314,-0.04736 -0.717043,-0.07124 -1.078675,-0.0713 -3.703222,3.1e-5 -6.705204,2.44465 -6.705017,5.460131 1.63e-4,3.015279 3.002042,5.459584 6.705017,5.459615 0.346037,4.7e-5 0.691256,-0.02172 1.032583,-0.06499 0.326772,-0.04143 0.843487,-0.01401 1.16683,0.04832 0.335484,0.06467 0.676639,0.09733 1.018995,0.09728 5.1935608,0.0044 10.3898845,0.03199 15.5842059,0.04929 1.2043048,0.004 2.1740275,-0.968789 2.1740275,-2.172478 V 33.42395 c 0,-1.20369 -0.9697227,-2.168981 -2.1740275,-2.172994 -5.1917284,-0.116612 -10.3944236,0.09939 -15.5842059,-0.04929 z" /><path
       id="path1"
       style="fill:#333333;stroke-width:0.619461;stroke-linecap:round;stroke-linejoin:round"
       d="m -12.563708,31.546572 c -2.825238,-7.7e-5 -5.115556,2.326104 -5.11545,5.195549 1.76e-4,2.869243 2.290411,5.195109 5.11545,5.195032 H 2.3656126 c 1.1287236,0 2.0376017,-0.908362 2.0376017,-2.037085 v -6.315894 c 0,-1.128723 -0.9088781,-2.037602 -2.0376017,-2.037602 z" /><path
       id="path6-9"
       style="display:inline;opacity:0.88;fill:#f9f9f9;stroke-width:0.645999;stroke-linecap:round;stroke-linejoin:round"
       d="m -12.960681,47.926771 c -0.357872,-4.7e-5 -0.714433,0.03564 -1.064575,0.106273 -0.297677,0.06005 -0.774055,0.08515 -1.075158,0.04513 -0.356314,-0.04736 -0.717043,-0.07124 -1.078675,-0.0713 -3.703222,3.1e-5 -6.705204,2.44465 -6.705017,5.460131 1.63e-4,3.015279 3.002042,5.459584 6.705017,5.459615 0.346037,4.7e-5 0.691256,-0.02172 1.032583,-0.06499 0.326772,-0.04143 0.843487,-0.01401 1.16683,0.04832 0.335484,0.06467 0.676639,0.09733 1.018995,0.09728 5.193561,0.0044 10.3898847,0.03199 15.5842061,0.04929 1.2043048,0.004 2.1740275,-0.968789 2.1740275,-2.172478 v -6.734987 c 0,-1.20369 -0.9697227,-2.168981 -2.1740275,-2.172994 -5.1917284,-0.116612 -10.3944236,0.09939 -15.5842061,-0.04929 z" /><path
       id="path1-4"
       style="display:inline;fill:#333333;stroke-width:0.619461;stroke-linecap:round;stroke-linejoin:round"
       d="m -12.563708,48.271677 c -2.825238,-7.7e-5 -5.115556,2.326104 -5.11545,5.195549 1.76e-4,2.869243 2.290411,5.195109 5.11545,5.195032 H 2.3656128 c 1.1287236,0 2.0376017,-0.908362 2.0376017,-2.037085 v -6.315894 c 0,-1.128723 -0.9088781,-2.037602 -2.0376017,-2.037602 z" /><path
       id="path6-9-9"
       style="display:inline;opacity:0.88;fill:#f9f9f9;stroke-width:0.645999;stroke-linecap:round;stroke-linejoin:round"
       d="m -12.960681,64.651874 c -0.357872,-4.7e-5 -0.714433,0.03564 -1.064575,0.106273 -0.297677,0.06005 -0.774055,0.08515 -1.075158,0.04513 -0.356314,-0.04736 -0.717043,-0.07124 -1.078675,-0.0713 -3.703222,3.1e-5 -6.705204,2.44465 -6.705017,5.460131 1.63e-4,3.015279 3.002042,5.459584 6.705017,5.459615 0.346037,4.7e-5 0.691256,-0.02172 1.032583,-0.06499 0.326772,-0.04143 0.843487,-0.01401 1.16683,0.04832 0.335484,0.06467 0.676639,0.09733 1.018995,0.09728 5.1935611,0.0044 10.3898848,0.03199 15.5842062,0.04929 1.2043048,0.004 2.1740275,-0.968789 2.1740275,-2.172478 v -6.734987 c 0,-1.20369 -0.9697227,-2.168981 -2.1740275,-2.172994 -5.1917284,-0.116612 -10.3944236,0.09939 -15.5842062,-0.04929 z" /><path
       id="path1-4-6"
       style="display:inline;fill:#333333;stroke-width:0.619461;stroke-linecap:round;stroke-linejoin:round"
       d="m -12.563708,64.99678 c -2.825238,-7.7e-5 -5.115556,2.326104 -5.11545,5.195549 1.76e-4,2.869243 2.290411,5.195109 5.11545,5.195032 H 2.3656129 c 1.1287236,0 2.0376017,-0.908362 2.0376017,-2.037085 v -6.315894 c 0,-1.128723 -0.9088781,-2.037602 -2.0376017,-2.037602 z" /><path
       id="path6-9-3"
       style="display:inline;opacity:0.88;fill:#f9f9f9;stroke-width:0.645999;stroke-linecap:round;stroke-linejoin:round"
       d="m -12.960681,81.376977 c -0.357872,-4.7e-5 -0.714433,0.03564 -1.064575,0.106273 -0.297677,0.06005 -0.774055,0.08515 -1.075158,0.04513 -0.356314,-0.04736 -0.717043,-0.07124 -1.078675,-0.0713 -3.703222,3.1e-5 -6.705204,2.44465 -6.705017,5.460131 1.63e-4,3.015279 3.002042,5.459584 6.705017,5.459615 0.346037,4.7e-5 0.691256,-0.02172 1.032583,-0.06499 0.326772,-0.04143 0.843487,-0.01401 1.16683,0.04832 0.335484,0.06467 0.676639,0.09733 1.018995,0.09728 5.1935611,0.0044 10.3898848,0.03199 15.5842062,0.04929 1.2043048,0.004 2.1740276,-0.968789 2.1740276,-2.172478 v -6.734987 c 0,-1.20369 -0.9697228,-2.168981 -2.1740276,-2.172994 -5.1917284,-0.116612 -10.3944236,0.09939 -15.5842062,-0.04929 z" /><path
       id="path1-4-0"
       style="display:inline;fill:#333333;stroke-width:0.619461;stroke-linecap:round;stroke-linejoin:round"
       d="m -12.563708,81.721883 c -2.825238,-7.7e-5 -5.115556,2.326104 -5.11545,5.195549 1.76e-4,2.869243 2.290411,5.195109 5.11545,5.195032 H 2.3656129 c 1.1287236,0 2.0376019,-0.908362 2.0376019,-2.037085 v -6.315894 c 0,-1.128723 -0.9088783,-2.037602 -2.0376019,-2.037602 z" /><path
       id="path6-9-91"
       style="display:inline;opacity:0.88;fill:#f9f9f9;stroke-width:0.645999;stroke-linecap:round;stroke-linejoin:round"
       d="m -12.960681,98.10208 c -0.357872,-4.7e-5 -0.714433,0.03564 -1.064575,0.106273 -0.297677,0.06005 -0.774055,0.08515 -1.075158,0.04513 -0.356314,-0.04736 -0.717043,-0.07124 -1.078675,-0.0713 -3.703222,3.1e-5 -6.705204,2.444647 -6.705017,5.460127 1.63e-4,3.01528 3.002042,5.45959 6.705017,5.45962 0.346037,5e-5 0.691256,-0.0217 1.032583,-0.065 0.326772,-0.0414 0.843487,-0.014 1.16683,0.0483 0.335484,0.0647 0.676639,0.0973 1.018995,0.0973 5.193561,0.004 10.3898847,0.032 15.5842061,0.0493 1.2043048,0.004 2.1740275,-0.96879 2.1740275,-2.17248 v -6.73499 c 0,-1.203686 -0.9697227,-2.168977 -2.1740275,-2.17299 -5.1917284,-0.116612 -10.3944236,0.09939 -15.5842061,-0.04929 z" /><path
       id="path1-4-4"
       style="display:inline;fill:#333333;stroke-width:0.619461;stroke-linecap:round;stroke-linejoin:round"
       d="m -12.563708,98.446986 c -2.825238,-7.7e-5 -5.115556,2.326104 -5.11545,5.195554 1.76e-4,2.86924 2.290411,5.1951 5.11545,5.19503 H 2.3656128 c 1.1287236,0 2.0376017,-0.90836 2.0376017,-2.03709 v -6.31589 c 0,-1.128725 -0.9088781,-2.037604 -2.0376017,-2.037604 z" /><path
       id="rect6"
       style="opacity:0.88;fill:#b3b3b3;stroke-width:0.629914;stroke-linecap:round;stroke-linejoin:round"
       d="m -11.260681,116.42641 v 6.39342 a 0.26458334,0.26458334 0 0 0 0.264583,0.26458 h 4.7309772 a 0.26458334,0.26458334 0 0 0 0.2645833,-0.26458 v -1.25678 c 0,-0.14612 -0.1187239,-0.26335 -0.2642533,-0.276 -1.0026121,-0.0873 -1.8039512,-0.66454 -1.9598029,-1.40126 -0.030185,-0.1427 -0.030186,-0.38264 3.7e-6,-0.52532 0.1558617,-0.73673 0.9572047,-1.31401 1.9598172,-1.40125 0.1455195,-0.0127 0.2642353,-0.1299 0.2642353,-0.27601 v -1.25679 a 0.26458334,0.26458334 0 0 0 -0.2645833,-0.26457 h -4.7309772 a 0.26458334,0.26458334 0 0 0 -0.264583,0.26456 z m 5.2601435,1.78595 v 2.82154 c 0,0.14612 0.1187236,0.26582 0.2642552,0.25318 1.0028303,-0.0871 1.8044378,-0.66442 1.9603179,-1.4013 0.030185,-0.14269 0.030186,-0.38263 -3.7e-6,-0.52532 -0.1558902,-0.73687 -0.9575015,-1.3142 -1.9603321,-1.4013 -0.1455218,-0.0126 -0.2642373,0.10708 -0.2642373,0.2532 z m 1.0773077,-1.82833 -0.6916556,0.95037 c -0.085986,0.11813 -0.038133,0.22978 0.1047543,0.26023 0.1028002,0.0219 0.2038556,0.0479 0.3027125,0.0777 0.13985,0.0422 0.2642756,-0.0318 0.2816039,-0.17695 l 0.1269012,-1.06257 a 0.06900778,0.06900778 0 0 0 -0.1243163,-0.0488 z m -1.9858094,0.50741 0.4398265,0.46473 c 0.1004446,0.10612 0.064312,0.20802 -0.078575,0.23847 -0.1028002,0.0219 -0.2038556,0.0479 -0.3027126,0.0777 -0.13985,0.0422 -0.2491298,-0.0327 -0.2477749,-0.1788 l 0.00491,-0.52971 a 0.10677736,0.10677736 0 0 1 0.1843243,-0.0724 z m -2.1125216,0.29863 1.3591282,0.60334 c 0.1335572,0.0593 0.1355533,0.16032 0.011954,0.23819 -0.1342644,0.0846 -0.2575336,0.17776 -0.3682832,0.2784 -0.1080766,0.0982 -0.2562231,0.0938 -0.3437614,-0.0232 l -0.7423627,-0.99224 a 0.06906673,0.06906673 0 0 1 0.083325,-0.1045 z m 5.9852024,0 -1.3591281,0.60334 c -0.1335572,0.0593 -0.1355533,0.16032 -0.011954,0.23819 0.1342644,0.0846 0.2575336,0.17776 0.3682832,0.2784 0.1080766,0.0982 0.2562231,0.0938 0.3437614,-0.0232 l 0.7423626,-0.99224 a 0.06906674,0.06906674 0 0 0 -0.083325,-0.1045 z m -6.9325229,1.4131 1.3365741,0.0922 c 0.1457786,0.0101 0.196304,0.1164 0.1341095,0.24849 -0.062845,0.13347 -0.1069868,0.27111 -0.131774,0.41087 -0.025486,0.14371 -0.1227671,0.19835 -0.2450541,0.11836 l -1.1363912,-0.74333 a 0.06902186,0.06902186 0 0 1 0.04254,-0.12662 z m 7.879844,0 -1.3365747,0.0922 c -0.1457786,0.0101 -0.196304,0.1164 -0.1341095,0.24849 0.062845,0.13347 0.1069868,0.27111 0.131774,0.41087 0.025486,0.14371 0.1227671,0.19835 0.2450542,0.11836 l 1.1363912,-0.74333 a 0.06902186,0.06902186 0 0 0 -0.042535,-0.12662 z m -6.5409341,1.28832 c 0.024787,0.13976 0.068929,0.2774 0.1317751,0.41088 0.062195,0.13209 0.011668,0.23843 -0.1341108,0.24849 l -1.3365752,0.0922 a 0.06902174,0.06902174 0 0 1 -0.04253,-0.12662 l 1.1363898,-0.74334 c 0.1222867,-0.08 0.2195671,-0.0254 0.2450538,0.11836 z m 5.2020239,0 c -0.024787,0.13976 -0.068929,0.2774 -0.1317738,0.41088 -0.062195,0.13209 -0.011669,0.23843 0.1341092,0.24849 l 1.3365749,0.0922 a 0.06902173,0.06902173 0 0 0 0.042536,-0.12662 l -1.1363926,-0.74334 c -0.1222867,-0.08 -0.2195672,-0.0254 -0.2450535,0.11836 z m -4.5762659,1.02863 c 0.1597886,0.11203 0.3609082,0.21503 0.5469129,0.30748 0.1305504,0.0649 0.1262013,0.16196 -0.00945,0.21628 l -1.5510248,0.62129 a 0.07429141,0.07429141 0 0 1 -0.087109,-0.11347 l 0.7423613,-0.99224 c 0.087539,-0.117 0.2389376,-0.12304 0.35831,-0.0393 z m 3.9650388,0.0162 c -0.1107501,0.10063 -0.2340191,0.19381 -0.3682828,0.27839 -0.12359,0.0778 -0.1215863,0.17888 0.011971,0.23817 l 1.3591281,0.60334 a 0.06906626,0.06906626 0 0 0 0.083324,-0.1045 l -0.7423612,-0.99223 c -0.087539,-0.11701 -0.2356921,-0.1214 -0.3437789,-0.0232 z m -2.6188034,0.65589 c 0.039095,0.0172 0.076885,0.0328 0.1178499,0.047 0.1354099,0.047 0.17136,0.14473 0.070915,0.25085 l -0.4398265,0.46473 a 0.07904897,0.07904897 0 0 1 -0.1352234,-0.0683 l 0.096357,-0.53797 c 0.025763,-0.14384 0.1561001,-0.21508 0.2899273,-0.15639 z m 1.4505574,-0.0183 c -0.098858,0.0298 -0.1999147,0.0558 -0.3027162,0.0777 -0.1428863,0.0304 -0.1907352,0.14211 -0.1047493,0.26027 l 0.691657,0.95035 a 0.06900739,0.06900739 0 0 0 0.1243158,-0.0488 l -0.1269016,-1.06258 c -0.017328,-0.14509 -0.1417519,-0.21917 -0.2816057,-0.17695 z" /><path
       id="path8"
       style="opacity:0.88;fill:#b3b3b3;stroke-width:0.614076;stroke-linecap:round;stroke-linejoin:round"
       d="m 266.58147,33.509252 a 3.7093956,3.7446152 0 0 0 -3.70937,3.744594 3.7093956,3.7446152 0 0 0 3.70937,3.744594 3.7093956,3.7446152 0 0 0 3.70937,-3.744594 3.7093956,3.7446152 0 0 0 -3.70937,-3.744594 z m 0,0.572522 a 3.1420057,3.1718381 0 0 1 3.14224,3.172072 3.1420057,3.1718381 0 0 1 -3.14224,3.171577 3.1420057,3.1718381 0 0 1 -3.14175,-3.171577 3.1420057,3.1718381 0 0 1 3.14175,-3.172072 z m -0.18969,0.794622 c -0.0461,0 -0.0831,0.03784 -0.0831,0.0844 V 39.5469 c 0,0.04656 0.037,0.0844 0.0831,0.0844 h 0.37939 c 0.0461,0 0.0831,-0.03784 0.0831,-0.0844 v -4.586104 c 0,-0.04656 -0.037,-0.0844 -0.0831,-0.0844 z" /></g></svg>
